<svg xmlns="http://www.w3.org/2000/svg" viewBox="0 0 400 400" width="400" height="400"><defs></defs><g transform="matrix(1,0,0,1,262.5,199)">
<g>
	<path d="M-262.5,-149 C-262.5,-176.5892388889507 -240.0892388889507,-199 -212.5,-199 L87.5,-199 C115.08923888895069,-199 137.5,-176.5892388889507 137.5,-149 L137.5,151 C137.5,178.5892388889507 115.08923888895069,201 87.5,201 L-212.5,201 C-240.0892388889507,201 -262.5,178.5892388889507 -262.5,151 L-262.5,-149 Z" fill="#fffd37" stroke="#fffd37" stroke-width="2"/>
</g>
<g>
	<path d="M-166.84375,94.39999389648438 C-166.84375,94.39999389648438 -203.796875,94.39999389648438 -203.796875,94.39999389648438 Q-212.4375,94.39999389648438 -212.4375,85.75936889648438 Q-212.4375,-69.75625610351563 -212.4375,-69.75625610351563 Q-212.4375,-78.39688110351563 -203.796875,-78.39688110351563 Q-123.875,-78.39688110351563 -123.875,-78.39688110351563 Q-105.875,-78.39688110351563 -95.5625,-73.35000610351563 Q-85.234375,-68.31875610351563 -80.921875,-59.318756103515625 Q-76.59375,-50.318756103515625 -76.59375,-38.318756103515625 Q-76.59375,-27.287506103515625 -76.59375,-27.287506103515625 Q-76.59375,-17.193756103515625 -79.484375,-10.240631103515625 Q-82.359375,-3.287506103515625 -90.046875,0.087493896484375 Q-76.84375,1.524993896484375 -68.921875,10.649993896484375 Q-61,19.759368896484375 -61,34.884368896484375 Q-61,85.75936889648438 -61,85.75936889648438 Q-61,94.39999389648438 -69.640625,94.39999389648438 Q-106.84375,94.39999389648438 -106.84375,94.39999389648438 Q-115.484375,94.39999389648438 -115.484375,85.75936889648438 Q-115.484375,49.040618896484375 -115.484375,49.040618896484375 Q-115.484375,43.524993896484375 -117.53125,41.118743896484375 Q-119.5625,38.712493896484375 -124.59375,38.712493896484375 Q-158.203125,38.712493896484375 -158.203125,38.712493896484375 C-158.203125,38.712493896484375 -158.203125,85.75936889648438 -158.203125,85.75936889648438 Q-158.203125,94.39999389648438 -166.84375,94.39999389648438 Q-166.84375,94.39999389648438 -166.84375,94.39999389648438 ZM-158.203125,-35.193756103515625 C-158.203125,-35.193756103515625 -158.203125,-4.475006103515625 -158.203125,-4.475006103515625 C-158.203125,-4.475006103515625 -140.203125,-4.475006103515625 -140.203125,-4.475006103515625 Q-133.953125,-4.475006103515625 -131.796875,-7.709381103515625 Q-129.640625,-10.959381103515625 -129.640625,-15.756256103515625 Q-129.640625,-23.912506103515625 -129.640625,-23.912506103515625 Q-129.640625,-28.725006103515625 -131.796875,-31.959381103515625 Q-133.953125,-35.193756103515625 -140.203125,-35.193756103515625 Q-158.203125,-35.193756103515625 -158.203125,-35.193756103515625 Z" fill="#000000"/>
</g>
<g>
	<path d="M11.640625,76.40936279296875 Q8.765625,81.44061279296875 6.484375,82.04998779296875 Q4.203125,82.64373779296875 -1.078125,79.28436279296875 Q-23.640625,62.95623779296875 -23.640625,62.95623779296875 Q-28.6875,59.36248779296875 -28.921875,56.97186279296875 Q-29.15625,54.56561279296875 -25.078125,50.00311279296875 Q1.078125,22.40936279296875 1.078125,22.40936279296875 C1.078125,22.40936279296875 -35.40625,16.40936279296875 -35.40625,16.40936279296875 Q-41.40625,15.20623779296875 -42.734375,13.28436279296875 Q-44.046875,11.36248779296875 -42.125,5.36248779296875 Q-33.484375,-21.27813720703125 -33.484375,-21.27813720703125 Q-31.5625,-27.27813720703125 -29.28125,-28.23126220703125 Q-27,-29.20001220703125 -21.71875,-26.55938720703125 Q12.359375,-11.20001220703125 12.359375,-11.20001220703125 C12.359375,-11.20001220703125 6.84375,-46.95001220703125 6.84375,-46.95001220703125 Q5.875,-53.20001220703125 7.671875,-54.99688720703125 Q9.484375,-56.79376220703125 15.484375,-56.79376220703125 Q43.5625,-56.79376220703125 43.5625,-56.79376220703125 Q49.796875,-56.79376220703125 51.359375,-54.99688720703125 Q52.921875,-53.20001220703125 51.71875,-46.95001220703125 Q46.921875,-11.20001220703125 46.921875,-11.20001220703125 C46.921875,-11.20001220703125 79.796875,-26.55938720703125 79.796875,-26.55938720703125 Q85.3125,-29.20001220703125 87.46875,-28.23126220703125 Q89.640625,-27.27813720703125 91.5625,-21.27813720703125 Q100.4375,5.36248779296875 100.4375,5.36248779296875 Q102.359375,11.36248779296875 101.15625,13.28436279296875 Q99.953125,15.20623779296875 93.71875,16.40936279296875 Q57,22.40936279296875 57,22.40936279296875 C57,22.40936279296875 83.40625,50.00311279296875 83.40625,50.00311279296875 Q87.484375,54.56561279296875 87.234375,56.97186279296875 Q87,59.36248779296875 81.953125,62.95623779296875 Q59.40625,79.28436279296875 59.40625,79.28436279296875 Q54.125,82.64373779296875 51.953125,82.04998779296875 Q49.796875,81.44061279296875 46.921875,76.40936279296875 Q29.15625,42.56561279296875 29.15625,42.56561279296875 C29.15625,42.56561279296875 11.640625,76.40936279296875 11.640625,76.40936279296875 Z" fill="#000000"/>
</g></g></svg>